<?xml version="1.0" encoding="UTF-8"?>
<!-- Generated by Pixelmator Pro 3.5.7 -->
<svg width="992" height="1425" viewBox="0 0 992 1425" xmlns="http://www.w3.org/2000/svg">
    <path id="Path" fill="#000000" stroke="none" d="M 976.849487 1073.709961 L 946.448853 1073.709961 L 818.214966 1073.709961 C 838.638306 1059.269653 855.083374 1039.296631 867.344238 1017.04248 C 880.688721 1002.584595 887.873413 982.317505 889.290405 962.243713 C 894.161255 964.993713 899.091675 967.660034 904.147461 970.147461 C 912.753296 927.612061 917.213013 884.239136 917.440796 840.842468 C 932.407959 825.530029 936.320068 800.501648 926.740845 781.352173 C 937.273315 784.382568 944.008789 770.389954 945.684937 759.558777 C 967.854248 616.349976 927.163696 464.538696 836.345459 351.613281 C 816.4104 326.824219 794.265015 303.914673 772.153809 281.044189 C 748.08667 256.150391 719.008789 229.26709 684.520874 232.348389 C 666.505005 233.957886 648.438843 243.859619 631.21875 238.32666 C 620.704224 234.948364 611.404541 225.973389 600.449585 227.366699 C 593.071655 228.305054 587.212036 233.80127 581.90918 239.01709 C 579.912476 240.980469 577.908325 242.972046 575.906616 244.977539 C 561.077881 231.049194 544.662476 217.975342 537.137939 199.258789 C 532.01709 186.52002 531.619507 172.449951 531.289917 158.724609 C 533.056641 160.506714 534.82373 162.289185 536.5896 164.071289 C 536.148315 141.183716 524.996216 118.727051 507.02832 104.543335 C 509.02417 100.306274 514.661743 98.236206 518.925049 100.174561 C 505.237915 80.855347 491.550903 61.535889 477.863708 42.216675 C 468.30249 28.721191 455 13.572144 438.716675 16.468384 C 433.479126 17.400024 429.062927 20.092041 425.31543 23.75293 C 422.427551 19.027954 419.489563 14.369629 415.16626 10.699585 C 412.5 8.436646 395.07251 1.592896 394.6604 0.5271 C 396.347107 4.887451 398.033752 9.247925 399.720398 13.608765 C 376.492493 9.57959 351.309204 6.421265 330.419189 17.344604 C 315.762512 25.007935 305.314148 38.58252 294.390015 51.001221 C 278.037476 69.59375 259.644592 86.390381 239.648743 100.993774 C 220.790833 114.765381 199.712097 127.446655 188.537903 147.950806 C 177.363281 168.454956 182 199.821655 204.059204 207.483276 C 196.76416 197.84082 193.191711 185.452515 194.233337 173.405884 C 197.749146 194.248291 213.522522 212.549561 233.618347 219.102051 C 240.28125 221.27417 248.77832 223.901611 250.850403 229.916992 C 244.48584 234.08374 238.856201 239.104614 237.208313 241.834595 C 236.015869 243.809204 235.890808 246.226196 235.81543 248.531738 C 235.206238 267.089233 235.739197 285.68457 237.410828 304.176636 C 237.58667 306.119141 237.80542 308.150024 238.889587 309.770752 C 239.85083 311.206665 241.37793 312.146729 242.866211 313.024536 C 256.905396 321.310059 271.815002 328.112549 287.26123 333.323364 C 290.207092 337.565796 293.394165 341.681641 296.575012 345.807495 C 300.141663 363.143311 301.607483 380.804565 302.849609 398.48291 C 308.266235 475.567871 303.511658 553.118408 313.988342 629.54541 C 300.131287 624.817017 286.273376 620.088745 272.415405 615.359985 C 237.079956 603.302979 197.725403 591.337891 163.483704 606.219116 C 154.08667 610.30249 145.94458 616.042114 138.766663 622.922974 C 124.240417 623.546631 110.203308 627.675903 101.160034 635.581299 C 92.035034 643.581177 86.784973 654.997925 82.410034 666.247925 C 70.784607 696.122925 63.409607 727.664551 60.57666 759.581299 C 59.201294 775.039551 58.950867 790.914551 63.70166 805.664612 C 67.49292 817.331238 74.284973 827.789612 79.660034 838.831238 C 86.743347 853.539551 91.2854 869.372986 95.659607 885.122437 C 114.15918 951.664673 156.034546 1028.122803 177.409973 1098.622925 L 202.700867 1178.622803 L 208.887085 1201.97583 C 199.939209 1205.623291 192.507935 1211.358887 187.741272 1219.80249 C 183.062073 1228.093384 182.027466 1237.88916 181.281677 1247.380371 C 159.744568 1241.86084 137.932495 1268.651611 147.669556 1288.626221 C 143.58252 1291.62915 139.38208 1294.490845 135.221619 1297.276733 C 107.99292 1315.507935 80.258362 1333.983765 48.924988 1343.57373 C 34.453369 1348.002563 18.1875 1351.210083 8.790405 1363.072144 C 0.151672 1373.977417 -0.108765 1389.09668 0.023743 1403.008667 C 27.941223 1411.472168 57.730408 1413.695435 86.594971 1409.470459 C 96.964539 1407.952515 107.394592 1405.607544 117.818359 1406.699219 C 128.745789 1407.842896 138.881653 1412.678711 149.29126 1416.194214 C 227.207458 1442.505859 312.272461 1393.99707 393.591675 1406.26123 C 407.667053 1408.384033 425.102905 1411.05835 433.418762 1399.505371 C 437.361694 1394.0271 437.794983 1386.825439 437.672058 1380.077148 C 437.02002 1344.412842 424.973755 1310.064209 413.063721 1276.440918 C 411.229614 1271.262451 409.337524 1265.976563 405.904175 1261.687866 C 402.896301 1257.928711 399.135437 1255.358765 394.93335 1253.473389 C 381.81665 1220.73584 367.502075 1188.317871 359.552124 1154.045044 C 348.071289 1104.544922 321.164978 1037.968018 324.296204 987.250427 C 325.563721 966.715393 326.937927 945.77832 321.838745 925.846252 C 319.372925 916.211243 315.462524 907.154602 310.889954 898.35791 C 329.098755 910.812561 351.685791 919.910828 368.780823 929.777954 C 378.10376 935.15918 387.462524 940.553711 397.025818 945.500854 C 398.333801 965.410034 394.862061 986.690796 393.737915 1006.388794 C 403.754944 1006.173767 413.770813 1005.95874 423.787476 1005.743713 C 422.254578 1011.939514 420.755005 1018.143372 419.19458 1024.33252 C 452.316284 1021.034546 485.696655 1020.429626 518.922119 1022.417114 C 539.942505 1032.319092 561.275391 1041.797607 581.905396 1051.70459 C 597.710449 1059.295044 613.604614 1066.877441 629.76709 1073.709961 L 490.164185 1073.709961 L 459.762939 1073.709961 C 451.764954 1073.709961 445.282104 1080.193726 445.282104 1088.19165 C 445.282104 1096.189453 451.764954 1102.67334 459.762939 1102.67334 L 464.513306 1102.67334 L 464.513306 1118.2771 C 464.513306 1131.949463 475.217896 1143.09082 488.698364 1143.854492 L 461.298706 1402.27417 C 460.567505 1409.168823 465.972107 1415.177002 472.905823 1415.177002 L 510.33252 1415.177002 C 516.30249 1415.177002 521.310425 1410.671997 521.94043 1404.735474 L 533.229614 1298.26123 L 903.382568 1298.26123 L 914.672119 1404.735474 C 915.301636 1410.671997 920.30957 1415.177002 926.280029 1415.177002 L 963.706665 1415.177002 C 970.640503 1415.177002 976.045044 1409.168823 975.314575 1402.27417 L 947.913818 1143.854492 C 961.394531 1143.091309 972.099976 1131.949463 972.099976 1118.2771 L 972.099976 1102.67334 L 976.849487 1102.67334 C 984.847046 1102.67334 991.329956 1096.189453 991.329956 1088.19165 C 991.329956 1080.193726 984.847046 1073.709961 976.849487 1073.709961 Z M 268.613708 296.170044 C 266.554993 295.394531 264.37085 294.58252 262.999573 292.862061 C 261.695374 291.224609 261.351685 289.044189 261.05249 286.97168 C 260.141296 280.63623 259.229553 274.30127 258.317078 267.96582 C 259.842102 269.461182 261.304993 271.010864 262.60791 272.690796 C 268.202942 279.901245 270.466248 288.766602 272.561707 297.769531 C 271.245422 297.236694 269.943359 296.670044 268.613708 296.170044 Z M 147.697937 1288.604126 C 148.802917 1281.033691 150.030823 1273.171997 154.370422 1266.873779 C 158.7229 1260.555786 167.207031 1256.374146 174.250427 1259.415039 C 168.581238 1271.494995 158.58667 1280.599976 147.697937 1288.604126 Z M 273.837524 828.832886 C 274.952454 829.773743 276.185364 830.775879 277.385437 831.76123 C 277.833313 835.09668 278.313354 838.379944 278.813782 841.554565 C 276.940002 837.403809 275.255432 833.173767 273.837524 828.832886 Z M 433.760803 481.416626 C 431.839966 479.932495 429.456665 478.927124 426.428345 478.674561 C 421.102966 478.367554 416.127502 480.960449 412.432922 484.889526 C 405.217529 444.64624 402.42334 403.617554 404.062927 362.765381 C 415.61792 353.324951 428.89209 344.924561 438.01001 337.088257 C 439.911255 335.47168 442.011658 333.772461 444.505005 333.667969 C 452.604126 333.329224 451.962524 346.799561 458.029175 352.175781 C 461.765808 355.486694 467.373779 355.039185 472.362488 354.861694 C 480.105835 354.586304 487.861206 355.542114 495.357544 357.500854 C 489.758301 383.949585 490.27124 412.307129 476.592102 435.479126 C 465.989136 453.438721 447.946289 466.234131 433.760803 481.416626 Z M 614.619263 708.85376 C 612.780762 712.451294 613.02002 716.06665 614.48584 719.521729 C 595.018799 717.661621 574.787598 711.459961 558.491333 720.128296 C 550.777466 724.231689 545.783813 734.616272 550.384521 742.044617 C 531.083374 726.307861 510.0271 712.72583 487.732056 701.630859 C 487.14209 705.033325 486.512451 708.429199 485.915405 711.829956 C 478.67334 704.539185 470.606628 697.89624 461.780029 691.774536 C 465.49585 688.344971 469.15625 684.85498 472.694153 681.243408 C 485.973389 667.688721 497.780396 653.018311 508.712891 637.677979 C 514.130005 643.205444 519.546631 648.733276 524.963745 654.260864 C 546.28833 625.757568 561.158325 593.112915 578.203369 561.827515 C 606.68457 593.4104 645.482544 634.202881 645.699219 633.8479 C 637.081299 647.996704 638.290405 667.467529 648.591309 680.44165 C 639.533813 687.537964 630.474121 694.634155 621.415405 701.730835 C 618.810059 703.771729 616.125732 705.907104 614.619263 708.85376 Z M 536.741333 1265.138306 L 549.593384 1143.928711 L 887.019165 1143.928711 L 899.87085 1265.138306 L 536.741333 1265.138306 Z"/>
</svg>
